<?xml version="1.0" encoding="UTF-8"?>
<svg width="16px" height="16px" viewBox="0 0 16 16" version="1.1" xmlns="http://www.w3.org/2000/svg" xmlns:xlink="http://www.w3.org/1999/xlink">
    <title>7C4DE9BC-D767-488A-96A8-ED6E3E8E5BAC</title>
    <g id="DONE---04_Games" stroke="none" stroke-width="1" fill="none" fill-rule="evenodd">
        <g id="DT_04_02_Games" transform="translate(-994.000000, -2724.000000)" fill="#1E1E1E">
            <g id="footer" transform="translate(2.000000, 2662.000000)">
                <g id="follow-us" transform="translate(933.000000, 24.000000)">
                    <g id="icon/instagram" transform="translate(59.000000, 38.000000)">
                        <path d="M8,1.442 C10.136,1.442 10.3893333,1.45 11.2333333,1.48866667 C13.4013333,1.58733333 14.414,2.616 14.5126667,4.768 C14.5513333,5.61133333 14.5586667,5.86466667 14.5586667,8.00066667 C14.5586667,10.1373333 14.5506667,10.39 14.5126667,11.2333333 C14.4133333,13.3833333 13.4033333,14.414 11.2333333,14.5126667 C10.3893333,14.5513333 10.1373333,14.5593333 8,14.5593333 C5.864,14.5593333 5.61066667,14.5513333 4.76733333,14.5126667 C2.594,14.4133333 1.58666667,13.38 1.488,11.2326667 C1.44933333,10.3893333 1.44133333,10.1366667 1.44133333,8 C1.44133333,5.864 1.45,5.61133333 1.488,4.76733333 C1.58733333,2.616 2.59733333,1.58666667 4.76733333,1.488 C5.61133333,1.45 5.864,1.442 8,1.442 L8,1.442 Z M8,-3.23815049e-16 C5.82733333,-3.23815049e-16 5.55533333,0.00933333333 4.702,0.048 C1.79666667,0.181333333 0.182,1.79333333 0.0486666667,4.70133333 C0.00933333333,5.55533333 -3.23815049e-16,5.82733333 -3.23815049e-16,8 C-3.23815049e-16,10.1726667 0.00933333333,10.4453333 0.048,11.2986667 C0.181333333,14.204 1.79333333,15.8186667 4.70133333,15.952 C5.55533333,15.9906667 5.82733333,16 8,16 C10.1726667,16 10.4453333,15.9906667 11.2986667,15.952 C14.2013333,15.8186667 15.82,14.2066667 15.9513333,11.2986667 C15.9906667,10.4453333 16,10.1726667 16,8 C16,5.82733333 15.9906667,5.55533333 15.952,4.702 C15.8213333,1.79933333 14.2073333,0.182 11.2993333,0.0486666667 C10.4453333,0.00933333333 10.1726667,-3.23815049e-16 8,-3.23815049e-16 Z M8,3.892 C5.73133333,3.892 3.892,5.73133333 3.892,8 C3.892,10.2686667 5.73133333,12.1086667 8,12.1086667 C10.2686667,12.1086667 12.108,10.2693333 12.108,8 C12.108,5.73133333 10.2686667,3.892 8,3.892 Z M8,10.6666667 C6.52733333,10.6666667 5.33333333,9.47333333 5.33333333,8 C5.33333333,6.52733333 6.52733333,5.33333333 8,5.33333333 C9.47266667,5.33333333 10.6666667,6.52733333 10.6666667,8 C10.6666667,9.47333333 9.47266667,10.6666667 8,10.6666667 Z M12.2706667,2.77 C11.74,2.77 11.31,3.2 11.31,3.73 C11.31,4.26 11.74,4.69 12.2706667,4.69 C12.8006667,4.69 13.23,4.26 13.23,3.73 C13.23,3.2 12.8006667,2.77 12.2706667,2.77 Z" id="Shape"></path>
                    </g>
                </g>
            </g>
        </g>
    </g>
</svg>