<?xml version="1.0" encoding="UTF-8"?>
<svg width="14px" height="16px" viewBox="0 0 14 16" version="1.1" xmlns="http://www.w3.org/2000/svg" xmlns:xlink="http://www.w3.org/1999/xlink">
    <title>345FD3D4-1D57-4417-9568-26E78591A90A</title>
    <g id="DONE---04_Games" stroke="none" stroke-width="1" fill="none" fill-rule="evenodd">
        <g id="DT_04_02_Games" transform="translate(-1026.000000, -2724.000000)" fill="#1E1E1E">
            <g id="footer" transform="translate(2.000000, 2662.000000)">
                <g id="follow-us" transform="translate(933.000000, 24.000000)">
                    <g id="icon/youtube" transform="translate(91.000000, 38.000000)">
                        <path d="M1.768,0 L2.728,0 L3.38666667,2.468 L3.99733333,0 L4.96666667,0 L3.85666667,3.67 L3.85666667,6.17466667 L2.90266667,6.17466667 L2.90266667,3.67 L1.768,0 Z M6.164,1.582 C5.418,1.582 4.92333333,2.07533333 4.92333333,2.80533333 L4.92333333,5.038 C4.92333333,5.84066667 5.34266667,6.25866667 6.164,6.25866667 C6.84533333,6.25866667 7.38133333,5.80333333 7.38133333,5.038 L7.38133333,2.80533333 C7.38133333,2.09266667 6.85,1.582 6.164,1.582 Z M6.518,5 C6.518,5.248 6.39133333,5.43066667 6.16333333,5.43066667 C5.92933333,5.43066667 5.794,5.23933333 5.794,5 L5.794,2.88066667 C5.794,2.63133333 5.90866667,2.44666667 6.14666667,2.44666667 C6.40666667,2.44666667 6.518,2.626 6.518,2.88066667 L6.518,5 L6.518,5 Z M9.67066667,1.62 L9.67066667,5.07733333 C9.56733333,5.20666667 9.33733333,5.41866667 9.17266667,5.41866667 C8.992,5.41866667 8.94733333,5.29466667 8.94733333,5.112 L8.94733333,1.62 L8.10066667,1.62 L8.10066667,5.42666667 C8.10066667,5.87666667 8.238,6.24 8.692,6.24 C8.948,6.24 9.304,6.10666667 9.67066667,5.67133333 L9.67066667,6.174 L10.5173333,6.174 L10.5173333,1.62 L9.67066667,1.62 Z M11.1393333,10.8586667 C10.8406667,10.8586667 10.7786667,11.0686667 10.7786667,11.3673333 L10.7786667,11.8066667 L11.4913386,11.8066667 L11.4913386,11.3666667 C11.492,11.0733333 11.43,10.8586667 11.1393333,10.8586667 Z M8.004,10.8853333 C7.948,10.914 7.89266667,10.958 7.83733333,11.0173333 L7.83733333,13.7206667 C7.90333333,13.7913333 7.96666667,13.842 8.02866667,13.8733333 C8.16,13.94 8.352,13.9446667 8.44133333,13.8286667 C8.488,13.7673333 8.51133333,13.668 8.51133333,13.5293333 L8.51133333,11.29 C8.51133333,11.1433333 8.48266667,11.0326667 8.42533333,10.9566667 C8.32733333,10.828 8.14533333,10.814 8.004,10.8853333 L8.004,10.8853333 Z M11.222,7.422 C9.486,7.304 3.84466667,7.304 2.11133333,7.422 C0.235333333,7.55 0.014,8.68333333 0,11.6666667 C0.014,14.6446667 0.233333333,15.7833333 2.11133333,15.9113333 C3.84466667,16.0293333 9.486,16.0293333 11.222,15.9113333 C13.098,15.7833333 13.3193333,14.6493333 13.3333333,11.6666667 C13.3193333,8.68866667 13.1,7.55 11.222,7.422 Z M3.006,14.546 L2.09733333,14.546 L2.09733333,9.51933333 L1.15733333,9.51933333 L1.15733333,8.666 L3.94533333,8.666 L3.94533333,9.51933333 L3.00533333,9.51933333 L3.00533333,14.546 L3.006,14.546 Z M6.23666667,14.546 L5.43,14.546 L5.43,14.0673333 C5.28133333,14.244 5.12666667,14.3786667 4.966,14.4706667 C4.53133333,14.72 3.93466667,14.714 3.93466667,13.834 L3.93466667,10.2086667 L4.74066667,10.2086667 L4.74066667,13.534 C4.74066667,13.7086667 4.78266667,13.826 4.95533333,13.826 C5.11266667,13.826 5.33133333,13.624 5.42933333,13.5013333 L5.42933333,10.2086667 L6.236,10.2086667 L6.236,14.546 L6.23666667,14.546 Z M9.34133333,13.6473333 C9.34133333,14.184 9.14066667,14.6013333 8.604,14.6013333 C8.30866667,14.6013333 8.06266667,14.4933333 7.838,14.2126667 L7.838,14.546 L7.024,14.546 L7.024,8.666 L7.838,8.666 L7.838,10.5593333 C8.02,10.3373333 8.26733333,10.154 8.55533333,10.154 C9.146,10.154 9.342,10.6533333 9.342,11.2413333 L9.342,13.6473333 L9.34133333,13.6473333 Z M12.322,12.4793333 L10.7793333,12.4793333 L10.7793333,13.298 C10.7793333,13.6233333 10.8073333,13.9046667 11.1313333,13.9046667 C11.472,13.9046667 11.492,13.6753333 11.492,13.298 L11.492,12.9966667 L12.322,12.9966667 L12.322,13.3226667 C12.322,14.158 11.9633333,14.6646667 11.1133333,14.6646667 C10.3433333,14.6646667 9.94933333,14.1033333 9.94933333,13.3226667 L9.94933333,11.3753333 C9.94933333,10.6226667 10.4466667,10.0993333 11.174,10.0993333 C11.948,10.0993333 12.3213333,10.5913333 12.3213333,11.3753333 L12.3213333,12.4793333 L12.322,12.4793333 Z" id="Shape"></path>
                    </g>
                </g>
            </g>
        </g>
    </g>
</svg>